<svg width="45" height="47" viewBox="0 0 45 47" fill="none" xmlns="http://www.w3.org/2000/svg">
<path d="M35.1656 29.0405C37.7747 29.0405 40.277 27.9736 42.1219 26.0745C43.9669 24.1754 45.0033 21.5997 45.0033 18.9139C45.0033 16.2282 43.9669 13.6525 42.1219 11.7534C40.277 9.85431 37.7747 8.78741 35.1656 8.78741C34.9688 8.78741 34.765 8.78741 34.5683 8.78741C33.5454 6.37312 31.8603 4.31854 29.7197 2.8756C27.579 1.43265 25.0758 0.664062 22.517 0.664062C19.9582 0.664062 17.4551 1.43265 15.3144 2.8756C13.1738 4.31854 11.4887 6.37312 10.4658 8.78741C10.269 8.78741 10.0653 8.78741 9.8685 8.78741C7.25937 8.78741 4.75709 9.85431 2.91216 11.7534C1.06722 13.6525 0.0307447 16.2282 0.0307447 18.9139C0.0307447 21.5997 1.06722 24.1754 2.91216 26.0745C4.75709 27.9736 7.25937 29.0405 9.8685 29.0405H13.382V35.4057H10.4658C10.2149 34.1155 9.51815 32.9626 8.50464 32.1607C7.49113 31.3588 6.22959 30.9623 4.95377 31.0446C3.67796 31.1269 2.47438 31.6824 1.56606 32.6083C0.657748 33.5342 0.106276 34.7676 0.0138406 36.08C-0.0785947 37.3924 0.294274 38.6948 1.06335 39.7458C1.83243 40.7969 2.94557 41.5253 4.19651 41.7962C5.44745 42.0671 6.75137 41.862 7.86664 41.219C8.98192 40.5759 9.83294 39.5385 10.262 38.299H14.7874C15.1601 38.299 15.5176 38.1466 15.7811 37.8753C16.0447 37.604 16.1928 37.2361 16.1928 36.8524V29.0405H21.1116V36.3316C19.8829 36.6815 18.8191 37.4781 18.1172 38.5737C17.4154 39.6693 17.1232 40.9896 17.2947 42.29C17.4663 43.5904 18.09 44.7827 19.0502 45.646C20.0104 46.5093 21.2421 46.985 22.517 46.985C23.792 46.985 25.0236 46.5093 25.9839 45.646C26.9441 44.7827 27.5678 43.5904 27.7393 42.29C27.9109 40.9896 27.6187 39.6693 26.9169 38.5737C26.215 37.4781 25.1512 36.6815 23.9224 36.3316V29.0405H28.8413V36.8524C28.8413 37.2361 28.9894 37.604 29.2529 37.8753C29.5165 38.1466 29.874 38.299 30.2467 38.299H34.7932C35.2215 39.5306 36.0688 40.5608 37.1783 41.1988C38.2877 41.8368 39.5841 42.0395 40.8276 41.7692C42.071 41.499 43.1772 40.7742 43.9414 39.729C44.7056 38.6838 45.0761 37.389 44.9842 36.0842C44.8923 34.7795 44.3443 33.5532 43.4416 32.6324C42.5389 31.7116 41.3427 31.1586 40.0744 31.0759C38.8061 30.9931 37.5516 31.3861 36.5432 32.1821C35.5347 32.9782 34.8406 34.1234 34.5894 35.4057H31.6521V29.0405H35.1656ZM5.30097 39.0224C4.81454 39.0224 4.33903 38.8739 3.93458 38.5957C3.53013 38.3175 3.2149 37.9221 3.02875 37.4595C2.8426 36.9969 2.79389 36.4879 2.88879 35.9968C2.98369 35.5057 3.21793 35.0546 3.56189 34.7006C3.90584 34.3465 4.34407 34.1054 4.82116 34.0077C5.29824 33.91 5.79275 33.9602 6.24216 34.1518C6.69156 34.3434 7.07567 34.6679 7.34592 35.0842C7.61617 35.5005 7.76041 35.99 7.76041 36.4907C7.76041 37.1622 7.50129 37.8061 7.04006 38.2809C6.57882 38.7556 5.95325 39.0224 5.30097 39.0224ZM39.7331 33.9591C40.2195 33.9591 40.6951 34.1076 41.0995 34.3857C41.504 34.6639 41.8192 35.0593 42.0053 35.5219C42.1915 35.9845 42.2402 36.4935 42.1453 36.9846C42.0504 37.4757 41.8162 37.9268 41.4722 38.2809C41.1282 38.6349 40.69 38.876 40.2129 38.9737C39.7358 39.0714 39.2413 39.0213 38.7919 38.8296C38.3425 38.638 37.9584 38.3135 37.6882 37.8972C37.4179 37.4809 37.2737 36.9914 37.2737 36.4907C37.2737 35.8193 37.5328 35.1754 37.994 34.7006C38.4553 34.2258 39.0808 33.9591 39.7331 33.9591ZM24.9765 41.554C24.9765 42.0547 24.8322 42.5442 24.562 42.9605C24.2917 43.3768 23.9076 43.7013 23.4582 43.8929C23.0088 44.0845 22.5143 44.1347 22.0372 44.037C21.5601 43.9393 21.1219 43.6982 20.778 43.3441C20.434 42.9901 20.1998 42.539 20.1049 42.0479C20.01 41.5568 20.0587 41.0478 20.2448 40.5852C20.431 40.1226 20.7462 39.7272 21.1507 39.449C21.5551 39.1708 22.0306 39.0224 22.517 39.0224C23.1693 39.0224 23.7949 39.2891 24.2561 39.7639C24.7174 40.2386 24.9765 40.8826 24.9765 41.554ZM9.8685 26.1472C8.00483 26.1472 6.2175 25.3851 4.89968 24.0286C3.58187 22.6721 2.84153 20.8323 2.84153 18.9139C2.84153 16.9956 3.58187 15.1558 4.89968 13.7993C6.2175 12.4428 8.00483 11.6807 9.8685 11.6807C10.2906 11.6819 10.7116 11.723 11.1263 11.8037C11.4639 11.8675 11.8125 11.8019 12.1063 11.6194C12.4002 11.4368 12.619 11.1499 12.7214 10.8127C13.4088 8.69854 14.7245 6.86025 16.4823 5.55776C18.2401 4.25527 20.3512 3.55449 22.517 3.55449C24.6829 3.55449 26.794 4.25527 28.5518 5.55776C30.3096 6.86025 31.6252 8.69854 32.3126 10.8127C32.4192 11.1459 32.6397 11.4278 32.9331 11.6061C33.2265 11.7844 33.5729 11.8469 33.9078 11.782C34.3231 11.7086 34.7442 11.6747 35.1656 11.6807C37.0293 11.6807 38.8166 12.4428 40.1344 13.7993C41.4522 15.1558 42.1926 16.9956 42.1926 18.9139C42.1926 20.8323 41.4522 22.6721 40.1344 24.0286C38.8166 25.3851 37.0293 26.1472 35.1656 26.1472H9.8685Z" fill="#008EFF"/>
</svg>
