<svg width="60" height="60" viewBox="0 0 60 60" fill="none" xmlns="http://www.w3.org/2000/svg">
<rect width="60" height="60" rx="3" fill="#FABB18"/>
<path d="M29.7143 15C25.5357 15 22.2143 18.3214 22.2143 22.5V23.5714C20.3929 23.5714 19 24.9643 19 26.7857V34.2857C19 40.1786 23.8214 45 29.7143 45C35.6071 45 40.4286 40.1786 40.4286 34.2857V26.7857C40.4286 24.9643 39.0357 23.5714 37.2143 23.5714V22.5C37.2143 18.3214 33.8929 15 29.7143 15ZM38.2857 26.7857V34.2857C38.2857 39 34.4286 42.8571 29.7143 42.8571C25 42.8571 21.1429 39 21.1429 34.2857V26.7857C21.1429 26.1429 21.5714 25.7143 22.2143 25.7143H23.2857H36.1429H37.2143C37.8571 25.7143 38.2857 26.1429 38.2857 26.7857ZM24.3571 23.5714V22.5C24.3571 19.5 26.7143 17.1429 29.7143 17.1429C32.7143 17.1429 35.0714 19.5 35.0714 22.5V23.5714H24.3571Z" fill="white"/>
<path d="M28.8577 31.8217H32.3934C33.0363 31.8217 33.4648 31.3931 33.4648 30.7503C33.4648 30.1074 33.0363 29.6789 32.3934 29.6789H30.7863V28.9289C30.7863 28.286 30.3577 27.8574 29.7148 27.8574C29.072 27.8574 28.6434 28.286 28.6434 28.9289V29.6789C27.1434 29.786 25.9648 30.9646 25.9648 32.4646C25.9648 34.0717 27.2506 35.3574 28.8577 35.3574H30.6791C31.1077 35.3574 31.4291 35.6789 31.4291 36.1074C31.4291 36.536 31.1077 36.8574 30.6791 36.8574H27.1434C26.5006 36.8574 26.072 37.286 26.072 37.9289C26.072 38.5717 26.5006 39.0003 27.1434 39.0003H28.6434V39.6431C28.6434 40.286 29.072 40.7146 29.7148 40.7146C30.3577 40.7146 30.7863 40.286 30.7863 39.6431V38.8931C32.2863 38.786 33.4648 37.6074 33.4648 36.1074C33.4648 34.5003 32.1791 33.2146 30.572 33.2146H28.7506C28.322 33.2146 28.0006 32.8931 28.0006 32.4646C28.1077 32.1431 28.4291 31.8217 28.8577 31.8217Z" fill="white"/>
</svg>
