<svg width="60" height="60" viewBox="0 0 60 60" fill="none" xmlns="http://www.w3.org/2000/svg">
<rect width="60" height="60" rx="3" fill="#008EFF"/>
<path d="M30 15C27.0333 15 24.1332 15.8797 21.6665 17.528C19.1997 19.1762 17.2771 21.5189 16.1418 24.2597C15.0065 27.0006 14.7094 30.0166 15.2882 32.9263C15.867 35.8361 17.2956 38.5088 19.3934 40.6066C21.4912 42.7044 24.1639 44.133 27.0736 44.7118C29.9834 45.2905 32.9994 44.9935 35.7403 43.8582C38.4811 42.7229 40.8238 40.8003 42.472 38.3335C44.1203 35.8668 45 32.9667 45 30C45 26.0217 43.4196 22.2064 40.6066 19.3934C37.7936 16.5804 33.9783 15 30 15ZM39.8036 38.2929L39.0964 37.575C38.8947 37.3732 38.621 37.2599 38.3357 37.2599C38.0504 37.2599 37.7768 37.3732 37.575 37.575C37.3732 37.7767 37.2599 38.0504 37.2599 38.3357C37.2599 38.621 37.3732 38.8947 37.575 39.0964L38.2929 39.8036C36.2662 41.5547 33.7396 42.623 31.0714 42.8571V41.7857C31.0714 41.5015 30.9586 41.229 30.7576 41.0281C30.5567 40.8272 30.2842 40.7143 30 40.7143C29.7158 40.7143 29.4433 40.8272 29.2424 41.0281C29.0415 41.229 28.9286 41.5015 28.9286 41.7857V42.8571C26.2666 42.6382 23.7406 41.5888 21.7071 39.8571L22.425 39.15C22.6268 38.9482 22.7401 38.6746 22.7401 38.3893C22.7401 38.104 22.6268 37.8303 22.425 37.6286C22.2233 37.4268 21.9496 37.3135 21.6643 37.3135C21.379 37.3135 21.1053 37.4268 20.9036 37.6286L20.1964 38.3464C18.4544 36.2984 17.4043 33.7521 17.1964 31.0714H18.2143C18.4985 31.0714 18.771 30.9585 18.9719 30.7576C19.1728 30.5567 19.2857 30.2842 19.2857 30C19.2857 29.7158 19.1728 29.4433 18.9719 29.2424C18.771 29.0415 18.4985 28.9286 18.2143 28.9286H17.1429C17.3618 26.2666 18.4112 23.7406 20.1429 21.7071L20.85 22.425C20.9501 22.5243 21.0689 22.6029 21.1994 22.6562C21.3299 22.7095 21.4697 22.7365 21.6107 22.7357C21.7517 22.7365 21.8915 22.7095 22.022 22.6562C22.1526 22.6029 22.2713 22.5243 22.3714 22.425C22.4719 22.3254 22.5516 22.2069 22.606 22.0763C22.6604 21.9458 22.6884 21.8057 22.6884 21.6643C22.6884 21.5228 22.6604 21.3828 22.606 21.2522C22.5516 21.1217 22.4719 21.0032 22.3714 20.9036L21.6536 20.1964C23.7016 18.4544 26.2479 17.4043 28.9286 17.1964V18.2143C28.9286 18.4984 29.0415 18.771 29.2424 18.9719C29.4433 19.1728 29.7158 19.2857 30 19.2857C30.2842 19.2857 30.5567 19.1728 30.7576 18.9719C30.9586 18.771 31.0714 18.4984 31.0714 18.2143V17.1429C33.7334 17.3618 36.2594 18.4111 38.2929 20.1429L37.575 20.85C37.4746 20.9496 37.3949 21.0681 37.3405 21.1987C37.2861 21.3292 37.2581 21.4693 37.2581 21.6107C37.2581 21.7522 37.2861 21.8922 37.3405 22.0228C37.3949 22.1533 37.4746 22.2718 37.575 22.3714C37.6751 22.4707 37.7938 22.5493 37.9244 22.6026C38.0549 22.6559 38.1947 22.683 38.3357 22.6821C38.4767 22.683 38.6165 22.6559 38.747 22.6026C38.8776 22.5493 38.9963 22.4707 39.0964 22.3714L39.8036 21.6536C41.565 23.6947 42.6341 26.2417 42.8571 28.9286H41.7857C41.5016 28.9286 41.229 29.0415 41.0281 29.2424C40.8272 29.4433 40.7143 29.7158 40.7143 30C40.7143 30.2842 40.8272 30.5567 41.0281 30.7576C41.229 30.9585 41.5016 31.0714 41.7857 31.0714H42.8571C42.623 33.7395 41.5547 36.2662 39.8036 38.2929Z" fill="white"/>
<path d="M34.769 31.1893L31.0725 29.3357V23.5714C31.0725 23.2873 30.9597 23.0147 30.7587 22.8138C30.5578 22.6129 30.2853 22.5 30.0011 22.5C29.717 22.5 29.4444 22.6129 29.2435 22.8138C29.0426 23.0147 28.9297 23.2873 28.9297 23.5714V30C28.9303 30.1979 28.9857 30.3917 29.0897 30.56C29.1937 30.7283 29.3423 30.8645 29.519 30.9536L33.8047 33.0964C33.9529 33.1758 34.1187 33.2163 34.2868 33.2143C34.4847 33.2137 34.6785 33.1583 34.8468 33.0543C35.0151 32.9503 35.1514 32.8017 35.2404 32.625C35.3675 32.372 35.3892 32.0789 35.3009 31.8099C35.2126 31.5409 35.0213 31.3177 34.769 31.1893Z" fill="white"/>
</svg>
