<svg width="574" height="573" viewBox="0 0 574 573" fill="none" xmlns="http://www.w3.org/2000/svg">
<path d="M459.853 302.925H228.17V469.859H459.853V302.925Z" fill="#D1EAFF"/>
<path d="M166.995 443.849L175.387 226.334H435.195V434.954L166.995 443.849Z" stroke="black" stroke-width="2.292"/>
<path d="M436.339 225.188H174.283V268.843H436.339V225.188Z" fill="black"/>
<path d="M194.905 258.167C201.065 258.167 206.058 253.175 206.058 247.015C206.058 240.855 201.065 235.862 194.905 235.862C188.746 235.862 183.753 240.855 183.753 247.015C183.753 253.175 188.746 258.167 194.905 258.167Z" fill="white"/>
<path d="M223.9 258.167C230.06 258.167 235.053 253.175 235.053 247.015C235.053 240.855 230.06 235.862 223.9 235.862C217.74 235.862 212.748 240.855 212.748 247.015C212.748 253.175 217.74 258.167 223.9 258.167Z" fill="white"/>
<path d="M252.894 258.167C259.054 258.167 264.047 253.175 264.047 247.015C264.047 240.855 259.054 235.862 252.894 235.862C246.734 235.862 241.742 240.855 241.742 247.015C241.742 253.175 246.734 258.167 252.894 258.167Z" fill="white"/>
<path d="M137.638 297.141V478.642H346.094L346.434 438.994" stroke="#FFDC4D" stroke-width="2.292"/>
<path d="M228.048 282.312L376.598 286.109C383.717 286.29 389.338 292.21 389.157 299.326C388.975 306.445 383.058 312.068 375.939 311.886L227.389 308.089C220.273 307.908 214.649 301.989 214.831 294.872C215.012 287.753 220.93 282.13 228.048 282.312Z" stroke="black" stroke-width="2.292"/>
<path d="M201.718 341.703L350.299 339.405C357.417 339.296 363.279 344.978 363.39 352.097C363.499 359.217 357.816 365.077 350.698 365.188L202.117 367.486C194.998 367.595 189.137 361.912 189.027 354.794C188.917 347.673 194.599 341.813 201.718 341.703Z" stroke="black" stroke-width="2.292"/>
<path d="M249.31 372.369L397.887 374.823C405.007 374.942 410.682 380.809 410.565 387.928C410.447 395.046 404.581 400.723 397.461 400.606L248.884 398.152C241.763 398.034 236.089 392.166 236.205 385.048C236.324 377.929 242.189 372.252 249.31 372.369Z" stroke="black" stroke-width="2.292"/>
<path d="M351.76 397.558C357.667 397.655 362.534 392.947 362.631 387.039C362.729 381.134 358.021 376.267 352.113 376.169C346.207 376.072 341.341 380.78 341.243 386.686C341.146 392.594 345.854 397.46 351.76 397.558Z" fill="#FFDC4D"/>
<path d="M247.632 364.488C253.538 364.396 258.252 359.535 258.16 353.628C258.069 347.722 253.208 343.008 247.3 343.1C241.394 343.19 236.68 348.053 236.772 353.96C236.862 359.866 241.725 364.58 247.632 364.488Z" fill="#FFDC4D"/>
<path d="M502.255 513.913C497.234 488.369 474.192 441.127 467.251 455.807C458.576 474.157 461.924 526.686 473.644 529.743C485.362 532.801 468.317 456.166 453.707 461.564C442.018 465.881 448.837 488.308 453.707 498.983C451.982 484.591 449.765 464.442 425.855 450.95" stroke="black" stroke-width="2.292" stroke-linecap="round"/>
<path d="M305.335 215.327C317.615 152.917 373.952 37.5039 390.92 73.3672C412.131 118.196 403.943 246.53 375.291 254.002C346.639 261.474 388.315 74.2462 424.038 87.4313C452.615 97.9793 435.945 152.77 424.038 178.847C428.255 143.687 433.672 94.4638 492.133 61.501" stroke="black" stroke-width="2.292" stroke-linecap="round"/>
<path d="M309.139 263.865L315.084 278.927L335.86 268.927L322.499 288.223L339.699 297.372L319.854 299.819L321.03 315.968L309.139 304.978L292.713 320.019L298.425 299.819L282.418 297.372L295.778 288.223L290.23 275.325L303.193 278.927L309.139 263.865Z" fill="black"/>
<path d="M315.9 261.288L321.847 276.35L342.622 266.35L329.262 285.646L346.46 294.795L326.615 297.242L327.793 313.391L315.9 302.401L299.474 317.442L305.186 297.242L289.179 294.795L302.539 285.646L296.991 272.748L309.954 276.35L315.9 261.288Z" fill="#FFDC4D"/>
<path d="M124.266 81.4847C124.266 86.2981 125.36 95.6895 130.212 95.6895C135.065 95.6895 141.838 86.2981 141.838 81.4847C141.838 76.6715 137.905 72.7695 133.052 72.7695C128.2 72.7695 124.266 76.6715 124.266 81.4847Z" fill="black"/>
<path d="M103.641 87.0917C103.641 90.782 104.461 97.9822 108.1 97.9822C111.739 97.9822 116.82 90.782 116.82 87.0917C116.82 83.4016 113.87 80.4102 110.23 80.4102C106.591 80.4102 103.641 83.4016 103.641 87.0917Z" fill="black"/>
<path d="M121.976 110.203C121.976 113.893 122.808 121.093 126.5 121.093C130.192 121.093 135.346 113.893 135.346 110.203C135.346 106.513 132.353 103.521 128.661 103.521C124.969 103.521 121.976 106.513 121.976 110.203Z" fill="black"/>
<path d="M103.641 110.203C103.641 113.893 104.461 121.093 108.1 121.093C111.739 121.093 116.82 113.893 116.82 110.203C116.82 106.513 113.87 103.521 110.23 103.521C106.591 103.521 103.641 106.513 103.641 110.203Z" fill="black"/>
<path d="M85.1138 110.203C85.1138 113.893 85.9339 121.093 89.573 121.093C93.2124 121.093 98.2928 113.893 98.2928 110.203C98.2928 106.513 95.3426 103.521 91.7033 103.521C88.064 103.521 85.1138 106.513 85.1138 110.203Z" fill="black"/>
<path d="M121.785 133.314C121.785 137.005 122.617 144.205 126.309 144.205C130.001 144.205 135.155 137.005 135.155 133.314C135.155 129.624 132.162 126.633 128.47 126.633C124.778 126.633 121.785 129.624 121.785 133.314Z" fill="black"/>
<path d="M151.748 434.234L117.177 444.736L122.836 455.621L109.114 468.842L121.731 479.994L135.559 462.202L143.05 467.26L151.748 434.234Z" fill="#FFDC4D" stroke="black" stroke-width="0.191"/>
<path d="M152.786 429.394L112.164 441.746L118.811 454.537L102.685 470.08L117.506 483.183L133.758 462.268L142.557 468.211L152.786 429.394Z" stroke="black" stroke-width="2.292"/>
<path d="M183.573 326.992C177.614 324.318 156.005 314.099 145.946 309.324L172.399 248.586C174.596 248.3 182.847 247.727 198.28 247.727C219.099 247.727 225.402 257.277 234.856 259.76C247.653 263.484 248.99 268.259 248.704 269.787C248.417 271.315 240.3 276.09 225.402 273.13C213.483 270.761 213.115 273.67 214.419 275.422C218.144 283.253 233.424 290.702 239.536 291.657C245.648 292.612 267.04 289.651 262.647 298.819C259.555 305.271 247.615 306.579 239.998 306.411C245.797 306.845 253.765 308.277 253.765 311.712C251.321 318.817 243.26 319.638 239.536 319.161C232.431 327.03 225.052 327.66 222.25 326.992C221.582 328.329 219.08 331.423 214.419 333.104C208.594 335.205 191.022 330.334 183.573 326.992Z" fill="#3D98E7"/>
<path d="M385 339.406C390.96 336.732 425.666 324.126 441.615 311.233L396.174 261C393.978 260.714 385.726 260.141 370.293 260.141C349.474 260.141 343.171 269.691 333.717 272.174C320.92 275.898 319.583 280.673 319.869 282.201C320.156 283.729 328.273 288.504 343.171 285.544C355.09 283.175 355.459 286.084 354.154 287.836C350.429 295.667 339.797 303.494 333.717 302.352C324.054 300.537 306.196 293.808 306.196 303.975C306.196 311.527 321.948 318.254 329.805 318.692C324.31 318.657 316.905 318.144 315.173 322.216C314.122 327.85 318.133 329.76 329.037 331.575C336.143 339.444 343.521 340.074 346.323 339.406C346.991 340.743 349.494 343.837 354.154 345.518C359.979 347.619 377.551 342.748 385 339.406Z" fill="#3D98E7"/>
<path d="M367.693 135.418C341.488 129.765 312.843 137.774 301.798 142.485C275.377 140.13 217.968 134.463 199.708 130.643C176.884 125.868 155.588 135.418 145.655 142.485C135.723 149.552 115.764 164.832 90.6475 178.584C30.8645 205.611 18.1646 251.069 23.799 260.619C29.4335 270.169 53.4997 284.685 94.372 291.943C124.597 297.31 140.562 308.401 145.655 309.992C164.221 301.283 174.274 261.478 176.979 242.665L164.66 229.772L181.754 216.498L194.267 225.286H366.453L406.657 242.665C403.295 243.811 394.496 255.112 390.517 260.619C385.246 292.86 416.461 309.834 432.728 314.29C436.993 314.448 446.748 313.812 451.637 309.992C457.749 305.217 505.786 265.871 516.195 249.732C526.605 233.592 510.083 210.386 489.646 199.976C469.209 189.567 400.449 142.485 367.693 135.418Z" fill="#FFDC4D"/>
<path d="M414.013 179.444L417.26 192.241L414.013 179.444ZM333.125 186.702L344.489 195.393L333.125 186.702ZM344.489 167.984L355.09 160.153L344.489 167.984ZM301.992 173.428L299.7 186.702L301.992 173.428ZM253.478 213.251L272.673 219.172L253.478 213.251ZM214.132 167.984L222.822 173.428L214.132 167.984ZM171.634 200.454L187.678 198.162L171.634 200.454ZM155.113 149.171L162.466 160.153L155.113 149.171ZM103.925 182.118L96.1891 190.809L103.925 182.118ZM141.934 239.8L155.113 249.35L141.934 239.8ZM119.491 267.686C104.822 273.569 105.421 273.766 107.554 273.13L119.491 267.686ZM61.8091 243.429L66.3931 228.34L61.8091 243.429ZM420.889 297.005L434.641 294.713L420.889 297.005ZM428.72 243.429L424.996 259.951L428.72 243.429ZM495.475 231.587L504.643 243.429L495.475 231.587Z" stroke="black" stroke-width="2.292" stroke-linecap="round"/>
<path d="M411.723 238.272C418.345 231.62 433.287 217.434 440.086 213.92" stroke="black" stroke-width="2.292" stroke-linecap="round"/>
<path d="M161.418 227.481C138.255 218.105 109.764 209.359 85.0178 218.504" stroke="black" stroke-width="2.292" stroke-linecap="round"/>
<path d="M94.9482 203.51C97.9087 203.51 106.504 205.057 117.2 211.245" stroke="black" stroke-width="2.292" stroke-linecap="round"/>
<path d="M232.872 136.14C238.155 136.14 242.437 131.858 242.437 126.575C242.437 121.293 238.155 117.011 232.872 117.011C227.589 117.011 223.306 121.293 223.306 126.575C223.306 131.858 227.589 136.14 232.872 136.14Z" fill="black"/>
<path d="M232.872 153.774C238.155 153.774 242.437 149.491 242.437 144.209C242.437 138.927 238.155 134.645 232.872 134.645C227.589 134.645 223.306 138.927 223.306 144.209C223.306 149.491 227.589 153.774 232.872 153.774Z" fill="black"/>
<path d="M223.309 144.209C228.592 144.209 232.874 139.927 232.874 134.645C232.874 129.362 228.592 125.08 223.309 125.08C218.026 125.08 213.744 129.362 213.744 134.645C213.744 139.927 218.026 144.209 223.309 144.209Z" fill="black"/>
<path d="M307.893 133.3C307.893 155.337 290.029 173.202 267.991 173.202C230.93 176.789 228.09 155.337 228.09 133.3C228.09 111.263 245.954 93.3984 267.991 93.3984C290.029 93.3984 307.893 111.263 307.893 133.3Z" fill="#3D98E7"/>
<path d="M267.995 92.7295C252.23 92.7295 237.721 102.184 231.991 116.7L307.515 127.77C304.823 108.35 288.155 92.7295 267.995 92.7295Z" fill="#F07CF2"/>
<path d="M305.952 127.472L202.386 113.125" stroke="black" stroke-width="2.292" stroke-linecap="round"/>
<path d="M241.636 163.878L247.219 174.249C256.393 193.17 290.947 187.08 290.532 165.31C290.229 149.31 241.636 163.878 241.636 163.878Z" fill="#3D98E7"/>
<path d="M305.503 144.21C311.114 144.21 315.664 139.594 315.664 133.899C315.664 128.204 311.114 123.587 305.503 123.587C299.889 123.587 295.34 128.204 295.34 133.899C295.34 139.594 299.889 144.21 305.503 144.21Z" fill="black"/>
<path d="M315.815 144.209C318.703 144.209 321.045 141.801 321.045 138.829C321.045 135.858 318.703 133.449 315.815 133.449C312.928 133.449 310.584 135.858 310.584 138.829C310.584 141.801 312.928 144.209 315.815 144.209Z" fill="black"/>
<path d="M319.849 147.946C319.849 154.631 314.471 161.001 307.746 161.994C298.629 163.339 290.857 154.183 290.857 147.498C290.857 140.812 301.059 135.841 307.746 135.841C314.431 135.841 319.849 141.26 319.849 147.946Z" fill="black"/>
<path d="M231.503 132.452C239.46 133.499 246.773 127.801 247.835 119.727L219.017 115.937C217.955 124.011 223.545 131.406 231.503 132.452Z" fill="black"/>
<path d="M247.825 129.387C252.879 130.035 257.516 126.348 258.183 121.15L239.885 118.802C239.216 123.999 242.773 128.738 247.825 129.387Z" fill="black"/>
<path d="M293.939 149.895C297.952 151.214 302.504 148.333 304.104 143.46C305.705 138.587 303.751 133.568 299.738 132.249C295.725 130.931 291.173 133.812 289.573 138.685C287.972 143.557 289.926 148.576 293.939 149.895Z" fill="#0E76D0"/>
<path d="M291.605 141.072C292.951 138.83 296.687 136.14 300.123 136.738" stroke="black" stroke-width="1.528" stroke-linecap="round"/>
<path d="M297.932 137.078C298.337 137.702 299.191 139.757 299.321 141.157" stroke="black" stroke-width="1.528" stroke-linecap="round"/>
<path d="M249.455 155.664L258.01 143.022L260.47 157.581L249.455 155.664Z" fill="#0E76D0"/>
<path d="M257.108 143.935L249.373 154.932L259.738 156.536" stroke="black" stroke-width="1.528" stroke-linecap="round"/>
<path d="M258.159 163.844C259.504 163.894 262.882 163.665 265.631 162.35" stroke="black" stroke-width="1.528" stroke-linecap="round"/>
<path d="M269.81 133.323C271.155 133.273 274.534 133.502 277.282 134.817" stroke="black" stroke-width="1.528" stroke-linecap="round"/>
<path d="M246.027 128.374C244.682 128.325 241.305 128.554 238.555 129.869" stroke="black" stroke-width="1.528" stroke-linecap="round"/>
<path d="M258.579 172.007C261.866 172.605 267.693 173.053 272.178 169.317" stroke="black" stroke-width="1.528" stroke-linecap="round"/>
<path d="M243.4 145.657C244.804 145.657 245.941 144.52 245.941 143.117C245.941 141.714 244.804 140.576 243.4 140.576C241.997 140.576 240.86 141.714 240.86 143.117C240.86 144.52 241.997 145.657 243.4 145.657Z" fill="black"/>
<path d="M272.924 145.657C274.327 145.657 275.464 144.52 275.464 143.117C275.464 141.714 274.327 140.576 272.924 140.576C271.52 140.576 270.383 141.714 270.383 143.117C270.383 144.52 271.52 145.657 272.924 145.657Z" fill="black"/>
<path d="M276.342 159.966C279.138 159.966 281.405 157.699 281.405 154.903C281.405 152.107 279.138 149.841 276.342 149.841C273.545 149.841 271.28 152.107 271.28 154.903C271.28 157.699 273.545 159.966 276.342 159.966Z" fill="#0E76D0"/>
<path d="M239.347 157.275C242.143 157.275 244.41 155.009 244.41 152.213C244.41 149.417 242.143 147.15 239.347 147.15C236.55 147.15 234.285 149.417 234.285 152.213C234.285 155.009 236.55 157.275 239.347 157.275Z" fill="#0E76D0"/>
<path d="M350.22 339.406C352.862 339.311 358.815 339.387 361.871 338.547M334.272 318.492C334.272 318.492 343.44 319.924 353.754 316.868L334.272 318.492ZM333.03 330.907C335.704 331.671 350.22 332.626 355.664 330.143L333.03 330.907Z" stroke="black" stroke-width="2.292" stroke-linecap="round"/>
<path d="M219.768 326.609C211.459 328.997 198.719 325.883 195.129 323.744M237.244 306.268C231.419 307.223 222.537 306.268 215.375 303.021L237.244 306.268ZM234.857 318.683C226.835 319.256 210.982 319.542 202.578 314.003L234.857 318.683Z" stroke="black" stroke-width="2.292" stroke-linecap="round"/>
<path d="M97.4724 320.376L61.2552 356.593C58.1281 355.451 54.8259 354.864 51.4969 354.858C35.6267 354.858 22.7622 367.722 22.7622 383.592C22.7622 399.462 35.6267 412.327 51.4969 412.327C67.3671 412.327 80.2316 399.462 80.2316 383.592C80.2316 380.161 79.5994 376.886 78.496 373.834L80.2316 372.098V360.605H91.7255V349.111H103.219V337.617H114.713V320.376H97.4724ZM58.0987 396.816C57.9569 397.491 57.6493 398.121 57.2036 398.647C56.7579 399.174 56.1881 399.582 55.5456 399.833C52.9112 400.865 50.0328 401.107 47.2632 400.528C44.4936 399.949 41.953 398.574 39.9527 396.573C37.9512 394.573 36.5768 392.031 35.998 389.261C35.4192 386.491 35.6611 383.612 36.6942 380.977C36.9456 380.335 37.3534 379.764 37.8806 379.319C38.4078 378.873 39.0378 378.566 39.7136 378.425C40.3894 378.284 41.0897 378.314 41.751 378.512C42.4124 378.71 43.014 379.069 43.5015 379.558L56.9709 393.027C57.9622 394.019 58.386 395.444 58.0987 396.816Z" fill="#FACB1B"/>
<path d="M114.713 320.376H97.4724L61.2552 356.593C58.1281 355.451 54.8259 354.864 51.4969 354.858C35.6267 354.858 22.7622 367.722 22.7622 383.592C22.7622 391.783 26.2061 399.155 31.7044 404.389L39.753 396.34C37.8297 394.339 36.5196 391.829 35.9778 389.106C35.436 386.384 35.6851 383.563 36.6957 380.977C36.9471 380.335 37.3548 379.764 37.882 379.319C38.4092 378.873 39.0392 378.566 39.715 378.425C40.3908 378.284 41.0911 378.314 41.7525 378.512C42.4139 378.71 43.0155 379.069 43.5029 379.558L50.0199 386.075L114.713 321.379V320.376Z" fill="#FBE158"/>
<path d="M68.7377 357.732C68.3569 357.35 68.1431 356.834 68.1431 356.295C68.1431 355.756 68.3569 355.239 68.7377 354.858L100.346 323.25H106.093L71.6112 357.732C71.23 358.112 70.7132 358.326 70.1744 358.326C69.6357 358.326 69.1189 358.112 68.7377 357.732Z" fill="#F3B607"/>
</svg>
